<svg xmlns="http://www.w3.org/2000/svg" viewBox="-73.24 -73.28 1499.06 500.26" xmlns:v="https://vecta.io/nano"><defs><linearGradient id="A" y2="488.43" gradientUnits="userSpaceOnUse" x2="-469.87" y1="-68.973" x1="-467.57"><stop offset="0" stop-color="#2294fe"/><stop offset="1" stop-color="#014f96"/></linearGradient></defs><g transform="translate(364.43 8.482)"><path d="M131.064 171.034v19.095c-5.773-3.182-11.583-5.551-17.43-7.105a64.33 64.33 0 0 0-17.541-2.442c-13.248 0-23.536 4.219-30.863 12.656-7.327 8.363-10.991 20.131-10.991 35.304s3.663 26.977 10.991 35.415c7.327 8.363 17.615 12.545 30.863 12.545a67.2 67.2 0 0 0 17.541-2.331c5.847-1.628 11.657-4.034 17.43-7.216v18.873c-5.699 2.664-11.62 4.663-17.763 5.995-6.069 1.332-12.545 1.998-19.428 1.998-18.725 0-33.601-5.884-44.629-17.652s-16.542-27.643-16.542-47.627c0-20.279 5.551-36.229 16.653-47.849 11.176-11.62 26.459-17.43 45.85-17.43 6.291 0 12.434.666 18.429 1.998 5.995 1.258 11.805 3.183 17.43 5.773m83.49 9.55c-10.954 0-19.613 4.293-25.978 12.878-6.365 8.511-9.548 20.205-9.547 35.082s3.145 26.607 9.436 35.193c6.365 8.511 15.061 12.767 26.089 12.767 10.88 0 19.502-4.293 25.867-12.878s9.547-20.279 9.548-35.082c0-14.728-3.183-26.385-9.548-34.971-6.365-8.659-14.987-12.989-25.867-12.989m0-17.319c17.763 0 31.714 5.773 41.854 17.319s15.209 27.532 15.209 47.96c0 20.353-5.07 36.34-15.209 47.96-10.14 11.546-24.091 17.319-41.854 17.319-17.837 0-31.825-5.773-41.965-17.319-10.066-11.62-15.098-27.606-15.098-47.96 0-20.427 5.033-36.414 15.098-47.96 10.14-11.546 24.128-17.319 41.965-17.319m187.62 26.859c5.107-9.177 11.213-15.949 18.318-20.316s15.468-6.55 25.09-6.55c12.952 0 22.943 4.552 29.975 13.655 7.031 9.03 10.546 21.908 10.547 38.634v75.048h-20.538v-74.382c0-11.916-2.11-20.76-6.328-26.533s-10.658-8.659-19.317-8.659c-10.584 0-18.947 3.516-25.09 10.547s-9.215 16.616-9.214 28.754v70.274h-20.538v-74.382c0-11.99-2.109-20.834-6.328-26.533-4.219-5.773-10.732-8.659-19.539-8.659-10.436 0-18.725 3.553-24.868 10.658-6.143 7.031-9.214 16.579-9.214 28.643v70.274h-20.538v-124.34h20.538v19.317c4.663-7.623 10.251-13.248 16.764-16.875s14.247-5.44 23.203-5.44c9.029 0 16.69 2.295 22.981 6.883 6.365 4.589 11.065 11.25 14.099 19.983m144.097 81.819v65.945h-20.538v-171.63h20.538v18.873c4.293-7.401 9.696-12.878 16.209-16.431 6.587-3.627 14.432-5.44 23.536-5.44 15.098 0 27.347 5.995 36.747 17.985 9.473 11.99 14.21 27.755 14.21 47.294s-4.737 35.304-14.21 47.294c-9.4 11.99-21.649 17.985-36.747 17.985-9.104 0-16.949-1.776-23.536-5.329-6.513-3.627-11.916-9.14-16.209-16.542m69.497-43.408c0-15.024-3.109-26.792-9.326-35.304-6.143-8.585-14.617-12.878-25.423-12.878s-19.317 4.293-25.534 12.878c-6.143 8.511-9.215 20.279-9.215 35.304s3.071 26.829 9.215 35.415c6.217 8.511 14.728 12.767 25.534 12.767s19.28-4.256 25.423-12.767c6.217-8.585 9.325-20.39 9.326-35.415m111.573-.446c-16.505 0-27.94 1.887-34.304 5.662s-9.548 10.214-9.548 19.317c0 7.253 2.368 13.026 7.105 17.319 4.811 4.219 11.324 6.328 19.539 6.328 11.324 0 20.39-3.997 27.199-11.99 6.883-8.067 10.325-18.762 10.325-32.084v-4.552h-20.316m40.744-8.437v70.94h-20.427v-18.873c-4.663 7.549-10.473 13.137-17.43 16.764-6.957 3.553-15.469 5.329-25.534 5.329-12.73 0-22.87-3.553-30.419-10.658-7.475-7.179-11.213-16.764-11.213-28.754 0-13.988 4.663-24.535 13.988-31.64 9.399-7.105 23.388-10.658 41.965-10.658h28.643v-1.998c0-9.399-3.109-16.653-9.326-21.759-6.143-5.181-14.802-7.771-25.978-7.771-7.105 0-14.025.851-20.76 2.553s-13.211 4.256-19.428 7.66v-18.873c7.475-2.886 14.728-5.033 21.759-6.439 7.031-1.48 13.877-2.22 20.538-2.22 17.985 0 31.418 4.663 40.299 13.988s13.322 23.462 13.322 42.409m145.987-4.103v75.048h-20.427V216.22c0-11.768-2.294-20.575-6.883-26.422s-11.472-8.77-20.649-8.77c-11.028 0-19.724 3.516-26.089 10.547s-9.548 16.616-9.548 28.754v70.274H809.94v-124.34h20.538v19.317c4.885-7.475 10.621-13.063 17.208-16.764 6.661-3.701 14.321-5.551 22.981-5.551 14.284 0 25.09 4.441 32.417 13.322 7.327 8.808 10.991 21.797 10.991 38.967m92.699 86.59c-5.773 14.802-11.398 24.461-16.875 28.976s-12.804 6.772-21.981 6.772h-16.32v-17.097h11.99c5.625 0 9.992-1.332 13.1-3.997s6.55-8.955 10.325-18.873l3.664-9.325-50.291-122.34h21.648l38.856 97.252 38.856-97.252h21.648l-54.621 135.89M73.61 93.724c0-6.675-1.385-11.848-4.155-15.519-2.737-3.671-6.591-5.507-11.564-5.507-4.94 0-8.794 1.836-11.564 5.507-2.737 3.671-4.105 8.844-4.105 15.519 0 6.642 1.368 11.798 4.105 15.469 2.77 3.671 6.625 5.507 11.564 5.507 4.973 0 8.827-1.836 11.564-5.507 2.77-3.671 4.155-8.828 4.155-15.469m9.211 21.727c0 9.545-2.119 16.637-6.358 21.276-4.239 4.672-10.73 7.009-19.474 7.009-3.237 0-6.291-.25-9.161-.751a44.69 44.69 0 0 1-8.36-2.203v-8.961c2.703 1.469 5.373 2.553 8.01 3.254a31.24 31.24 0 0 0 8.06 1.051c6.041 0 10.563-1.585 13.567-4.756 3.004-3.137 4.505-7.893 4.506-14.268v-4.556c-1.902 3.304-4.339 5.774-7.309 7.409s-6.525 2.453-10.663 2.453c-6.875 0-12.415-2.62-16.621-7.86s-6.308-12.182-6.308-20.826c0-8.677 2.103-15.636 6.308-20.876s9.745-7.86 16.621-7.86c4.138 0 7.693.818 10.663 2.453s5.407 4.105 7.309 7.409v-8.511h9.211v49.111m66.928-23.374v4.506h-42.352c.4 6.341 2.303 11.18 5.707 14.518 3.438 3.304 8.21 4.956 14.318 4.956 3.538 0 6.959-.434 10.263-1.302 3.337-.868 6.641-2.169 9.912-3.905v8.711a55.24 55.24 0 0 1-10.163 3.204 50.9 50.9 0 0 1-10.563 1.101c-8.944 0-16.037-2.603-21.276-7.81-5.206-5.206-7.81-12.248-7.81-21.126 0-9.178 2.47-16.454 7.409-21.827 4.973-5.407 11.664-8.11 20.075-8.11 7.543 0 13.5 2.436 17.872 7.309 4.405 4.839 6.608 11.431 6.608 19.774m-9.211-2.703c-.067-5.04-1.485-9.061-4.255-12.065-2.737-3.004-6.375-4.505-10.914-4.506-5.14 0-9.261 1.452-12.365 4.355-3.071 2.904-4.839 6.992-5.307 12.265l32.841-.05m70.741-.805v33.842h-9.211V88.865c0-5.306-1.035-9.278-3.104-11.915s-5.173-3.955-9.312-3.955c-4.973 0-8.894 1.585-11.765 4.756s-4.305 7.493-4.305 12.966v31.689h-9.261V66.337h9.261v8.711c2.203-3.371 4.789-5.891 7.76-7.559 3.004-1.669 6.458-2.503 10.363-2.503 6.441 0 11.314 2.002 14.618 6.007 3.304 3.972 4.956 9.829 4.956 17.572m66.43 3.509v4.506h-42.352c.4 6.341 2.303 11.18 5.707 14.518 3.438 3.304 8.21 4.956 14.318 4.956 3.538 0 6.959-.434 10.263-1.302 3.337-.868 6.641-2.169 9.912-3.905v8.711a55.24 55.24 0 0 1-10.163 3.204 50.9 50.9 0 0 1-10.563 1.101c-8.944 0-16.037-2.603-21.276-7.81-5.206-5.206-7.81-12.248-7.81-21.126 0-9.178 2.47-16.454 7.409-21.827 4.973-5.407 11.664-8.11 20.075-8.11 7.543 0 13.5 2.436 17.872 7.309 4.405 4.839 6.608 11.431 6.608 19.774m-9.211-2.703c-.067-5.04-1.485-9.061-4.255-12.065-2.737-3.004-6.375-4.505-10.913-4.506-5.14 0-9.261 1.452-12.365 4.355-3.071 2.904-4.839 6.992-5.307 12.265l32.841-.05m56.62-14.419c-1.035-.601-2.169-1.035-3.404-1.302-1.202-.3-2.537-.451-4.005-.451-5.207 0-9.211 1.702-12.015 5.106-2.77 3.371-4.155 8.227-4.155 14.568v29.537h-9.261V66.34h9.261v8.711c1.936-3.404 4.456-5.924 7.559-7.559 3.104-1.669 6.875-2.503 11.314-2.503a16.39 16.39 0 0 1 2.103.15 29.24 29.24 0 0 1 2.553.35l.05 9.462m9.76-8.611h9.211v56.069h-9.211V66.34m0-21.827h9.211v11.664h-9.211V44.513m68.79 23.979v8.611c-2.603-1.435-5.223-2.503-7.86-3.204a29.01 29.01 0 0 0-7.91-1.101c-5.974 0-10.613 1.902-13.917 5.707-3.304 3.771-4.956 9.078-4.956 15.92s1.652 12.165 4.956 15.97c3.304 3.771 7.943 5.657 13.917 5.657a30.29 30.29 0 0 0 7.91-1.051c2.637-.734 5.256-1.819 7.86-3.254v8.511c-2.57 1.202-5.24 2.103-8.01 2.703-2.737.601-5.657.901-8.761.901-8.444 0-15.152-2.653-20.125-7.96s-7.459-12.465-7.459-21.477c0-9.145 2.503-16.337 7.509-21.577 5.039-5.24 11.931-7.86 20.676-7.86a38.2 38.2 0 0 1 8.31.901 36.82 36.82 0 0 1 7.86 2.603m48.56-23.979h9.211v77.896h-9.211V44.513m50.16 28.285c-4.939 0-8.844 1.936-11.714 5.807-2.87 3.838-4.305 9.111-4.305 15.82s1.418 11.998 4.255 15.87c2.87 3.838 6.792 5.757 11.765 5.757 4.906 0 8.794-1.936 11.664-5.807s4.305-9.145 4.305-15.82c0-6.641-1.435-11.898-4.305-15.769-2.87-3.905-6.758-5.857-11.664-5.857m0-7.81c8.01 0 14.301 2.603 18.873 7.81s6.858 12.415 6.859 21.627c0 9.178-2.286 16.387-6.859 21.627-4.572 5.206-10.863 7.81-18.873 7.81-8.043 0-14.351-2.603-18.923-7.81-4.539-5.24-6.808-12.449-6.808-21.627 0-9.211 2.269-16.42 6.808-21.627 4.572-5.206 10.88-7.81 18.923-7.81m77.849 28.735c0-6.675-1.385-11.848-4.155-15.519-2.737-3.671-6.591-5.507-11.564-5.507-4.939 0-8.794 1.836-11.564 5.507-2.737 3.671-4.105 8.844-4.105 15.519 0 6.642 1.368 11.798 4.105 15.469 2.77 3.671 6.625 5.507 11.564 5.507 4.973 0 8.828-1.836 11.564-5.507 2.77-3.671 4.155-8.828 4.155-15.469m9.211 21.727c0 9.545-2.119 16.637-6.358 21.276-4.239 4.672-10.73 7.009-19.474 7.009-3.237 0-6.291-.25-9.161-.751a44.69 44.69 0 0 1-8.36-2.203v-8.961c2.703 1.469 5.373 2.553 8.01 3.254a31.24 31.24 0 0 0 8.06 1.051c6.041 0 10.563-1.585 13.567-4.756 3.004-3.137 4.505-7.893 4.506-14.268v-4.556c-1.902 3.304-4.339 5.774-7.309 7.409s-6.525 2.453-10.663 2.453c-6.875 0-12.415-2.62-16.621-7.86s-6.308-12.182-6.308-20.826c0-8.677 2.103-15.636 6.308-20.876s9.745-7.86 16.621-7.86c4.138 0 7.693.818 10.663 2.453s5.407 4.105 7.309 7.409v-8.511h9.211v49.111m40.708-42.65c-4.939 0-8.844 1.936-11.714 5.807-2.87 3.838-4.305 9.111-4.305 15.82s1.418 11.998 4.255 15.87c2.87 3.838 6.792 5.757 11.765 5.757 4.906 0 8.794-1.936 11.664-5.807s4.305-9.145 4.305-15.82c0-6.641-1.435-11.898-4.305-15.769-2.87-3.905-6.758-5.857-11.664-5.857m0-7.81c8.01 0 14.301 2.603 18.873 7.81s6.858 12.415 6.859 21.627c0 9.178-2.286 16.387-6.859 21.627-4.572 5.206-10.864 7.81-18.873 7.81-8.043 0-14.351-2.603-18.924-7.81-4.539-5.24-6.808-12.449-6.808-21.627 0-9.211 2.27-16.42 6.808-21.627 4.572-5.206 10.88-7.81 18.924-7.81" fill="#666"/><path d="M-184.26 202.82c0 157.74-127.87 285.61-285.61 285.61s-285.61-127.87-285.61-285.61S-627.61-82.79-469.87-82.79-184.26 45.08-184.26 202.82z" transform="matrix(.43789 -.43789 .43789 .43789 -70.600059 -126.197619)" fill="url(#A)"/><path d="M-61.606 142.019c42.056 42.056 42.056 110.241 0 152.298s-110.241 42.056-152.298 0-42.056-110.241 0-152.298 110.241-42.056 152.298 0z" fill="#eee"/></g></svg>